<svg xmlns="http://www.w3.org/2000/svg" xmlns:xlink="http://www.w3.org/1999/xlink"><symbol viewBox="0 0 47.406 47.38" id="icon_aboutus-cow" xmlns="http://www.w3.org/2000/svg"><defs><style>.acls-1{fill:#323232;fill-rule:evenodd}</style></defs><path id="aКорова" class="acls-1" d="M652.578 1395a2.42 2.42 0 0 1-2.127 1.04 9.366 9.366 0 0 1-3.256-.84 17.086 17.086 0 0 1-1.576 8.35 5.2 5.2 0 0 1 .517 3.08c-.488 3.38-4.283 5.23-8.524 5.23s-8.018-1.85-8.48-5.23a5.164 5.164 0 0 1 .33-2.62 17.331 17.331 0 0 1-1.786-8.73 8.929 8.929 0 0 1-3.065.76 2.42 2.42 0 0 1-2.127-1.04 2.326 2.326 0 0 1-.162-2.22c.812-1.91 3.593-2.74 4.75-3.01l.1-.02c-1.4-2.9-.723-7.6-.2-9.19l3.057.25c.056 1 .766 2.88 3.436 5.01l1.585 1.09a12.914 12.914 0 0 1 2.4-.23 12.732 12.732 0 0 1 2.289.21l1.692-1.16c2.67-2.13 3.379-4.01 3.435-5.01l3.058-.26c.528 1.6 1.207 6.35-.224 9.24l.294.07c1.157.27 3.937 1.1 4.75 3.01a2.326 2.326 0 0 1-.166 2.22zm-25.069-3.28s-2.859.66-3.362 1.85 3.155-.14 3.835-.7a2.317 2.317 0 0 1-.473-1.15zm3.3.07c-1.752 2.75-1.578 7 .467 11.37l.367.78-.318.8a3.209 3.209 0 0 0-.208 1.62c.329 2.41 3.6 3.5 6.5 3.5s6.2-1.1 6.545-3.52a3.177 3.177 0 0 0-.33-1.9l-.416-.84.378-.86c1.878-4.25 1.97-8.37.244-11.02-1.3-1.99-3.575-3.04-6.587-3.04-3.051 0-5.351 1.07-6.645 3.11zm20.093 1.78c-.5-1.19-3.361-1.85-3.361-1.85a2.328 2.328 0 0 1-.474 1.15c.678.56 4.333 1.88 3.833.7zm-18.57-6.1s-3.595-2.48-3.735-5.02c-.4 2.18-.584 5.62.7 6.99a21 21 0 0 1 3.032-1.97zm10.232-.1s3.595-2.47 3.736-5.01c.4 2.17.584 5.61-.705 6.98a22.893 22.893 0 0 0-3.034-1.97zm-5.378-15.57a23.7 23.7 0 1 1-23.7 23.7 23.7 23.7 0 0 1 23.697-23.7zm0 45.4a21.7 21.7 0 1 1 21.7-21.7 21.722 21.722 0 0 1-21.703 21.7z" transform="translate(-613.469 -1371.81)"/></symbol><symbol viewBox="0 0 47.375 47.38" id="icon_aboutus-icecream" xmlns="http://www.w3.org/2000/svg"><defs><style>.bcls-1{fill:#323232;fill-rule:evenodd}</style></defs><path id="bМороженко" class="bcls-1" d="M77.454 1381.45a8.575 8.575 0 0 0-14.639 6.06v14.68a.808.808 0 0 0 .809.81h15.533a.808.808 0 0 0 .809-.81v-14.68a8.512 8.512 0 0 0-2.512-6.06zm.894 19.93H64.433v-10.89c.045.05.092.1.143.16a2.619 2.619 0 0 0 4.309 0 1.185 1.185 0 0 1 .946-.6 1 1 0 0 1 .309.43 10.746 10.746 0 0 1 .488 1.22 9.606 9.606 0 0 0 .7 1.65 1.753 1.753 0 0 0 3.237 0 9.614 9.614 0 0 0 .7-1.65 10.67 10.67 0 0 1 .488-1.22 1 1 0 0 1 .309-.43 1.186 1.186 0 0 1 .946.6 3.205 3.205 0 0 0 1.346 1v9.73zm-9.007 8.58a2.049 2.049 0 1 0 4.1 0v-6.16h-4.1v6.16zm2.159-38.16a23.7 23.7 0 1 1-23.7 23.7 23.7 23.7 0 0 1 23.7-23.7zm0 45.4a21.7 21.7 0 1 1 21.7-21.7 21.722 21.722 0 0 1-21.7 21.7z" transform="translate(-47.813 -1371.81)"/></symbol><symbol viewBox="0 0 47.375 47.38" id="icon_aboutus-natural" xmlns="http://www.w3.org/2000/svg"><defs><style>.ccls-1{fill:#323232;fill-rule:evenodd}</style></defs><path id="cЛистик" class="ccls-1" d="M71.437 1499.62s-22.24-10.18 0-32.75c22.24 22.57 0 32.75 0 32.75zm7.516-17.18l-6.536 4.16-.021 3.68 6.894-4.41a13.37 13.37 0 0 0-.337-3.43zm-15.39 3.19l6.833 4.48v-3.62l-6.453-4.15a13.622 13.622 0 0 0-.38 3.29zm6.833-1.52v-3.63L66 1477.1a21.756 21.756 0 0 0-1.464 3.24zm0-6.09v-7.04a39.184 39.184 0 0 0-3.356 4.42zm2 .28l3.629-2.6a39.493 39.493 0 0 0-3.629-4.82v7.42zm.021 2.3l-.021 3.68 5.981-3.85a21.714 21.714 0 0 0-1.337-3.01zm6.443 7.9l-6.443 4.1-.021 4.16a15.3 15.3 0 0 0 6.463-8.26zm-8.463 8.2v-4.21l-6.417-4.13c1.105 4.14 4.32 6.93 6.42 8.34zm1.1-36.9a23.7 23.7 0 1 1-23.7 23.7 23.7 23.7 0 0 1 23.703-23.7zm0 45.4a21.7 21.7 0 1 1 21.7-21.7 21.722 21.722 0 0 1-21.697 21.7z" transform="translate(-47.813 -1459.81)"/></symbol><symbol viewBox="0 0 47.406 47.38" id="icon_aboutus-temp" xmlns="http://www.w3.org/2000/svg"><defs><style>.dcls-1{fill:#323232;fill-rule:evenodd}</style></defs><path id="dГрадусник" class="dcls-1" d="M637.023 1498.33a6.814 6.814 0 0 1-6.823-6.77 8.038 8.038 0 0 1 1.822-4.6v-14.84a5 5 0 0 1 10 0v14.91a7.629 7.629 0 0 1 1.778 4.53 6.775 6.775 0 0 1-6.777 6.77zm0-2a4.8 4.8 0 0 1-4.8-4.77 5.237 5.237 0 0 1 1.845-3.78v-15.66a3 3 0 0 1 6 0v15.72a5.092 5.092 0 0 1 1.754 3.72 4.8 4.8 0 0 1-4.799 4.77zm2.706-4.91a2.774 2.774 0 1 1-3.675-2.61v-16.84a.949.949 0 0 1 1.9 0v16.87a2.765 2.765 0 0 1 1.775 2.58zM645 1475h4a1 1 0 0 1 0 2h-4a1 1 0 0 1 0-2zm0-4h4a1 1 0 0 1 0 2h-4a1 1 0 0 1 0-2zm0 8h4a1 1 0 0 1 0 2h-4a1 1 0 0 1 0-2zm0 4h4a1 1 0 0 1 0 2h-4a1 1 0 0 1 0-2zm-7.817-23.2a23.7 23.7 0 1 1-23.7 23.7 23.7 23.7 0 0 1 23.7-23.7zm0 45.4a21.7 21.7 0 1 1 21.7-21.7 21.722 21.722 0 0 1-21.7 21.7z" transform="translate(-613.469 -1459.81)"/></symbol><symbol preserveAspectRatio="xMidYMid" viewBox="0 0 20.62 19.719" id="icon_cart" xmlns="http://www.w3.org/2000/svg"><defs><style>.ecls-1{fill:#fff;fill-rule:evenodd}</style></defs><path d="M20.576 4.429l-1.204 8.912c-.184.922-1.024 1.635-1.882 1.635H6.61c-.859 0-1.697-.713-1.879-1.635L3.262 3.054c-.146-.732-.157-.977-.137-1.055H1a1 1 0 1 1 0-2h4a1 1 0 0 1 1 1 .99.99 0 0 1-.898.98h13.965c1.105 0 1.773 1.131 1.509 2.45zM5.418 3.946l1.313 9h10.672c-.005 0-.004-.002.004-.013l1.186-8.788s.028-.199.031-.199H5.418zm1.827 12.01a1.874 1.874 0 1 1 .002 3.748 1.874 1.874 0 0 1-.002-3.748zm9.001 0a1.874 1.874 0 1 1 0 3.748 1.874 1.874 0 0 1 0-3.748z" class="ecls-1"/></symbol><symbol viewBox="0 0 15.12 10.25" id="icon_cart--full" xmlns="http://www.w3.org/2000/svg"><defs><style>.fcls-1{fill:#ec573b;fill-rule:evenodd}</style></defs><path id="fКорзина_заполнена" data-name="Корзина заполнена" class="fcls-1" d="M1076.5 32.375h15.12l-1.37 10.25-12.63-.125z" transform="translate(-1076.5 -32.375)"/></symbol><symbol viewBox="0 0 10.125 10.124" id="icon_close" xmlns="http://www.w3.org/2000/svg"><defs><style>.gcls-1{fill:#353535;fill-rule:evenodd}</style></defs><path id="g_Х" data-name="Х" class="gcls-1" d="M650.86 96.139l.708-.707L661 104.86l-.707.707zm9.438-.716l.707.707-9.428 9.429-.708-.708z" transform="translate(-650.875 -95.438)"/></symbol><symbol viewBox="0 0 14.562 12.66" id="icon_heart" xmlns="http://www.w3.org/2000/svg"><defs><style>.hcls-1{fill:#f7f8f8;fill-rule:evenodd}</style></defs><path id="hСердце" class="hcls-1" d="M434.606 2362.73s7.285-3.6 7.285-8.22c0-5.13-5.5-5.94-7.3-1.71m.049 9.93s-7.285-3.6-7.285-8.22c0-5.13 5.5-5.94 7.3-1.71" transform="translate(-427.344 -2350.06)"/></symbol><symbol viewBox="0 0 8 14" id="icon_pagination-next" xmlns="http://www.w3.org/2000/svg"><defs><style>.icls-1{fill:#fff;fill-rule:evenodd}</style></defs><path id="i_" data-name="&lt;" class="icls-1" d="M984.014 1504.56l5.262-5.56-5.256-5.55 1.366-1.44 6.624 7-1.366 1.44-5.262 5.56z" transform="translate(-984 -1492)"/></symbol><symbol viewBox="0 0 8.281 13.72" id="icon_pagination-prev" xmlns="http://www.w3.org/2000/svg"><defs><style>.jcls-1{fill:#fff;fill-rule:evenodd}</style></defs><path id="j_" data-name="&lt;" class="jcls-1" d="M991.611 1493.69l-5.447 5.45 5.44 5.44-1.414 1.41-6.857-6.86 1.414-1.41 5.447-5.44z" transform="translate(-983.344 -1492.28)"/></symbol><symbol preserveAspectRatio="xMidYMid" viewBox="0 0 16.687 16.688" id="icon_search" xmlns="http://www.w3.org/2000/svg"><defs><style>.kcls-1{fill:#fff;fill-rule:evenodd}</style></defs><path d="M11.936 10.497h-.758l-.264-.261a6.166 6.166 0 0 0 1.497-4.03A6.203 6.203 0 0 0 6.205.007 6.202 6.202 0 0 0-.001 6.206a6.202 6.202 0 0 0 10.24 4.704l.263.262v.755l4.773 4.761 1.423-1.423-4.762-4.768zm-5.731 0a4.294 4.294 0 0 1-4.297-4.291 4.294 4.294 0 0 1 4.297-4.292 4.293 4.293 0 0 1 4.296 4.292 4.293 4.293 0 0 1-4.296 4.291z" class="kcls-1"/></symbol><symbol preserveAspectRatio="xMidYMid" viewBox="0 0 20.062 19" id="icon_signin" xmlns="http://www.w3.org/2000/svg"><defs><style>.lcls-1{fill:#fff;fill-opacity:.99;fill-rule:evenodd}</style></defs><path d="M17.059 18.986H6a3 3 0 0 1-3-3V15h2v2h13V2H5v1.968H3v-.959A3 3 0 0 1 6 .008h11.059a3 3 0 0 1 3 3.001v12.977a3 3 0 0 1-3 3zM6.024 4.158l7.027 5.3-7.027 5.299v-2.742H-.005V6.901h6.029V4.158z" class="lcls-1"/></symbol><symbol viewBox="0 0 31.374 31.4" id="icon_social-facebook" xmlns="http://www.w3.org/2000/svg"><defs><style>.mcls-1{fill:#fff;fill-rule:evenodd;opacity:.8}</style></defs><path id="mФБ" class="mcls-1" d="M144.865 2352.23a15.69 15.69 0 1 1-15.692 15.69 15.687 15.687 0 0 1 15.692-15.69zm.773 24.99v-9.29h2.743l.285-3.09h-3.028v-1.86c0-.89.085-1.26 1.367-1.26h1.764v-3.42h-2.792c-3.294 0-4.082 1.54-4.082 4.34v2.2h-1.889v3.09h1.894v9.29h3.738z" transform="translate(-129.188 -2352.22)"/></symbol><symbol viewBox="0 0 31.374 31.4" id="icon_social-instagram" xmlns="http://www.w3.org/2000/svg"><defs><style>.ncls-1{fill:#fff;fill-rule:evenodd;opacity:.8}</style></defs><path id="nИнста" class="ncls-1" d="M95.865 2352.23a15.69 15.69 0 1 1-15.692 15.69 15.688 15.688 0 0 1 15.692-15.69zm6.271 23.61a1.745 1.745 0 0 0 1.745-1.75v-12.31a1.743 1.743 0 0 0-1.745-1.74H89.809a1.743 1.743 0 0 0-1.745 1.74v12.31a1.745 1.745 0 0 0 1.745 1.75h12.328zm-1.375-9.1a4.921 4.921 0 1 1-9.529 0h-1.38v6.78a.609.609 0 0 0 .611.61h11.065a.609.609 0 0 0 .612-.61v-6.78h-1.38zM96 2365.13a2.848 2.848 0 1 1 0 5.68 2.84 2.84 0 0 1 0-5.68zm3.7-3.31h1.865a.608.608 0 0 1 .611.61v1.86a.608.608 0 0 1-.611.61H99.7a.609.609 0 0 1-.611-.61v-1.86a.609.609 0 0 1 .611-.61z" transform="translate(-80.188 -2352.22)"/></symbol><symbol viewBox="0 0 31.375 31.4" id="icon_social-twitter" xmlns="http://www.w3.org/2000/svg"><defs><style>.ocls-1{fill:#fff;fill-rule:evenodd;opacity:.8}</style></defs><path id="oТвитер" class="ocls-1" d="M46.427 2352.17a15.69 15.69 0 1 1-15.692 15.69 15.688 15.688 0 0 1 15.692-15.69zm9.138 10.81a7.331 7.331 0 0 1-2.092.57 3.663 3.663 0 0 0 1.6-2.02 7.4 7.4 0 0 1-2.313.89 3.645 3.645 0 0 0-6.207 3.32 10.316 10.316 0 0 1-7.507-3.81 3.655 3.655 0 0 0 1.127 4.87 3.68 3.68 0 0 1-1.65-.46v.05a3.651 3.651 0 0 0 2.922 3.57 3.789 3.789 0 0 1-.96.13 3.861 3.861 0 0 1-.685-.07 3.643 3.643 0 0 0 3.4 2.53 7.29 7.29 0 0 1-4.524 1.56 8.291 8.291 0 0 1-.869-.05 10.354 10.354 0 0 0 15.946-8.73c0-.16 0-.31-.011-.47a7.33 7.33 0 0 0 1.823-1.88z" transform="translate(-30.75 -2352.16)"/></symbol><symbol viewBox="0 0 31.374 31.4" id="icon_social-vkontakte" xmlns="http://www.w3.org/2000/svg"><defs><style>.pcls-1{fill:#fff;fill-rule:evenodd;opacity:.8}</style></defs><path id="pВК" class="pcls-1" d="M193.865 2352.23a15.69 15.69 0 1 1-15.692 15.69 15.687 15.687 0 0 1 15.692-15.69zm5.967 18.25a3.1 3.1 0 0 0-.757-2.2 3.7 3.7 0 0 0-2.016-1.09v-.07a2.881 2.881 0 0 0 1.371-1.14 3.211 3.211 0 0 0 .5-1.77 3.133 3.133 0 0 0-.362-1.52 2.6 2.6 0 0 0-1.091-1.05 4.522 4.522 0 0 0-1.446-.48 17.993 17.993 0 0 0-2.269-.11h-4.8v13.59h5.438a8.909 8.909 0 0 0 2.332-.25 4.783 4.783 0 0 0 1.686-.86 3.684 3.684 0 0 0 1.032-1.27 3.909 3.909 0 0 0 .383-1.78zm-4.372-5.59a1.517 1.517 0 0 0-.169-.67 1 1 0 0 0-.527-.5 2.111 2.111 0 0 0-.8-.17c-.308 0-.766-.01-1.374-.01h-.237v2.88h.43c.583 0 .994-.01 1.228-.02a2.044 2.044 0 0 0 .727-.19 1.129 1.129 0 0 0 .563-.53 1.9 1.9 0 0 0 .157-.79zm.856 5.53a1.673 1.673 0 0 0-.255-.99 1.533 1.533 0 0 0-.767-.54 2.658 2.658 0 0 0-.853-.13c-.362-.01-.849-.01-1.456-.01h-.63v3.4h.184c.888 0 1.5-.01 1.842-.02a2.867 2.867 0 0 0 1.041-.24 1.381 1.381 0 0 0 .68-.59 1.813 1.813 0 0 0 .214-.88z" transform="translate(-178.188 -2352.22)"/></symbol><symbol preserveAspectRatio="xMidYMid" viewBox="0 0 153.094 63.25" id="logo" xmlns="http://www.w3.org/2000/svg"><defs><style>.qcls-1{fill:#fff;fill-rule:evenodd}</style></defs><path d="M153.077 52.162c-.45 6.771-5.747 11.1-12.885 11.1-6.872 0-10.002-3.162-10.002-6.1 0-1.621 1.247-2.834 2.479-3.194.182-.041.29-.055.386-.055.284 0 .445.129.531.238.21.263.141.567.052.951-.025.108-.054.233-.083.378-.181 1.02-.18 2.514.873 3.771 1.161 1.387 3.36 2.12 6.357 2.12 4.543 0 9.617-3.597 9.894-9.407.203-4.772-2.147-8.118-6.055-8.758.333.84.536 1.767.605 2.767.171 2.586-.486 4.848-1.849 6.372-1.104 1.234-2.609 1.929-4.354 2.008-1.47.073-2.66-.424-3.51-1.395-.944-1.078-1.354-2.692-1.123-4.429.436-3.404 2.659-6.05 5.887-7.093-1.645-1.313-4.024-2.081-6.81-2.184-3.242-.13-6.064.543-8.433 1.97-1.206 7.441-3.688 16.015-6.777 16.015-.638 0-1.234-.395-1.677-1.114-1.042-1.693-1.26-5.305.722-9.239 1.481-2.914 3.18-5.056 5.191-6.54.257-2.358.448-4.804.567-7.297-.987 1.26-2.156 1.97-3.352 2.005-1.004 1.397-2.295 2.164-3.656 2.164-1.181 0-2.27-.485-3.153-1.404-1.317-1.372-1.987-3.498-1.886-5.987.168-4.011 1.809-7.016 4.39-8.039.528-.217 1.049-.063 1.251.341.564-.654 1.265-1.106 2.11-1.259.732-.13 1.418.166 1.986.819 1.185 1.358 1.643 3.973 1.227 6.996-.239 1.643-.612 3.067-1.113 4.254.934-.687 1.84-2.452 2.339-4.698.016-1.496.011-2.897-.016-4.281-.03-1.054.313-1.636.606-1.939.297-.305.691-.48 1.081-.48 1.084 0 1.137.626 1.137 1.732 0 .441.007.835.015 1.313l.011.77c1.205-2.613 2.747-4.056 4.394-4.056.735 0 1.407.309 1.943.867 1.105 1.153 1.618 3.439 1.485 6.564-.28 5.664-3.499 8.248-6.567 8.248-.577 0-1.117-.003-1.635-.211-.057.679-.126 1.556-.209 2.224 2.472-1.056 5.34-1.057 8.835-.831 4.064.247 7.084 2.401 8.977 4.401h.236c2.775 0 5.261.224 7.003 2.08 1.858 1.978 2.772 4.392 2.575 7.522zm-33.224-5.169c-1.78 3.561-1.704 6.021-1.219 6.806.088.143.183.221.28.232.584-.284 2.043-3.616 3.081-10.252a15.384 15.384 0 0 0-2.142 3.214zm-4.889-17.48c-.193-1.844-.008-3.813.58-5.411-.739 1.069-1.227 2.961-1.321 5.254-.1 2.02.382 3.792 1.286 4.741.257.269.671.592 1.183.592.279 0 .571-.088.858-.255-1.382-.896-2.366-2.73-2.586-4.921zm4.219-5.27c-.054-.057-.132-.126-.203-.126-.849.245-1.915 2.415-1.789 4.939.061 1.412.555 3.195 1.726 3.915.432-.789.888-2.086 1.008-4.131.157-2.448-.274-4.099-.742-4.597zm8.07 10.7c1.829 0 3.071-2.077 3.319-5.557.212-3.239-.2-4.914-.657-5.401-.123-.131-.211-.131-.244-.131-.64 0-2.695 2.878-3.748 9.672l-.064 1.027c.346.266.795.39 1.394.39zm15.62 11.601c-.074-1.258-.414-2.38-1.012-3.342-2.666.507-4.55 2.399-4.95 5.001-.218 1.304-.01 2.412.583 3.126.449.541 1.088.822 1.901.837l.106.002c.768 0 1.472-.316 2.037-.916.965-1.024 1.453-2.74 1.335-4.708zm-31.248-8.428c-.046.22-.271.773-1.482.623-2.446-.263-3.577-3.232-3.452-9.075.03-1.42.152-2.6.25-3.549.091-.882.193-1.881.06-2.079-.727.038-3.546 3.81-4.576 10.633-.049 1.731-1.027 2.208-1.597 2.208-1.037 0-1.221-.442-1.221-1.688 0-1.457.016-1.994.046-3.076.02-.715.047-1.67.081-3.297a97.69 97.69 0 0 1 .521-7.891c-1.378.234-2.875.249-4.374.04-4.264-.568-5.692-3.31-5.606-5.688.104-1.512 1.426-2.373 2.288-2.588.175-.038.29-.053.389-.053a.64.64 0 0 1 .54.254c.206.284.108.582-.039 1.033l-.082.25a3.936 3.936 0 0 0 .064 2.181c.123.273.387.659.833.659.309 0 .668-.184.984-.504.67-.678 1.062-1.827 1.047-3.074-.041-2.731-1.606-4.333-4.409-4.513a8.127 8.127 0 0 0-.539-.017c-2.528 0-5.252 1.275-5.637 4.125-.488 3.726 2.647 5.625 5.965 7.634l.375.227c3.42 2.111 7.043 4.755 6.772 9.45-.306 5.01-4.763 8.787-10.369 8.787-.695 0-1.399-.06-2.091-.179-6.885-1.188-9.051-6.531-8.814-10.745.106-1.516.587-3.639 2.284-5.177.597-.545 2.429-1.143 3.021-1.228.723-.105.91.207.986.382.187.43-.133.859-.507 1.26-1.965 1.922-2.827 3.434-3.093 5.41-.239 1.888.27 3.717 1.432 5.143 1.21 1.486 3.055 2.396 5.196 2.564 4.208.326 8.159-2.198 8.542-5.332.472-3.82-2.457-6.129-5.763-8.348l-.695-.457c-3.459-2.273-7.037-4.624-6.652-8.658.377-4.587 5.078-6.991 9.528-6.991.122 0 .243.002.362.006 2.281.085 4.1.811 5.263 2.1 1.042 1.157 1.532 2.713 1.413 4.498-.119 2.368-1.269 4.465-2.914 5.476.281.1.578.179.89.235a8.745 8.745 0 0 0 3.616-.077c1.204-8.835 3.717-14.523 6.433-14.523.619 0 1.209.408 1.662 1.147 1.173 1.913 1.408 5.72-.411 9.294-1.198 2.397-2.92 4.134-5.118 5.162a62.813 62.813 0 0 0-.461 6.927c1.437-3.125 3.501-5.732 5.643-5.732.511 0 .929.172 1.243.51.892.965.773 3.109.485 6.816-.534 6.512.196 8.185.902 8.442.861.382.819.909.786 1.063zm-5.814-23.384c1.457-2.914 1.273-5.641.816-6.674-.134-.304-.258-.399-.292-.408-.545.246-2.014 3.81-2.989 10.085 1.009-.738 1.835-1.745 2.465-3.003zM76.765 29.025c-2.93 21.904-5.728 24.438-7.579 24.438-.624 0-1.176-.315-1.596-.911-1.087-1.544-1.112-4.671-.062-7.606a29.284 29.284 0 0 1 5.631-9.628l.029-.278c-.869 1.337-1.832 2.049-2.814 2.049-.987 0-2.657-.494-3.58-3.538-1.501 2.617-3.475 4.09-5.54 4.09-2.077 0-3.905-1.294-4.914-3.39-.801 1.927-1.911 3.772-3.229 3.772-1.082 0-1.913-1.273-2.297-3.415-.951 1.59-2.079 2.503-3.258 2.606a2.066 2.066 0 0 1-.17.007c-1.236 0-2.666-1.068-3.394-3.127-1.215 2.203-2.594 3.44-3.876 3.44-1.685 0-3.319-2.003-4.281-5.128-1.074 2.608-2.733 5.108-4.574 5.108-.703 0-1.424-.37-2.085-1.07-1.521-1.612-3.174-5.625-2.826-11.634.517-8.31 3.554-19.898 7.328-19.898.286 0 .701.093 1.057.54 1.293 1.628.768 7.125-.018 10.508-1.055 4.308-3.351 9.392-5.112 12.273.283 4.745 1.406 6.88 2.122 6.88.767 0 2.432-2.666 3.316-6.852a27.293 27.293 0 0 1-.058-4.037c.542-8.715 3.722-20.868 7.67-20.868.295 0 .723.096 1.09.559 1.352 1.702.8 7.462-.024 11.009-1.107 4.522-3.519 9.862-5.368 12.886.297 5.003 1.491 7.255 2.253 7.255.576 0 1.923-1.64 2.982-5.16.655-6.057 4.193-8.196 7.02-8.196 1.535 0 2.402.577 2.86 1.062.583.618.874 1.468.82 2.395-.13 1.005-1.649 1.891-2.4 2.031-.541.116-.805-.102-.896-.233-.222-.319-.095-.662.116-1.229l.05-.135c.278-.899.306-1.526.076-1.838-.162-.221-.501-.332-1.007-.332-1.654 0-3.04 2.295-3.449 5.711-.314 2.543.261 4.512.929 5.267.158.178.319.281.441.281.813 0 1.925-1.622 2.477-4.722l.025-.315c.02-.275.04-.531.102-.873.188-.975 1.313-1.417 2.279-1.417.421 0 .703.092.865.277l.149.173-.014.278c-.985 5.169-.671 7.093-.433 7.49.287-.26 1.015-1.47 1.901-4.939a13.357 13.357 0 0 1-.005-.941c.253-5.043 2.892-8.839 6.142-8.839.911 0 1.66.309 2.228.92 1.12 1.21 1.07 3.129 1.028 3.689-.132.998-1.654 1.799-2.4 1.938-.612.135-.815-.086-.904-.214-.204-.296-.088-.605.088-1.072l.085-.226c.38-1.071.556-2.458.153-3.029-.086-.123-.25-.286-.66-.286-1.27 0-2.391 2.902-2.553 6.606-.074 2.179.481 4.101 1.485 5.139.498.515 1.088.787 1.705.787 2.396 0 3.725-3.08 4.317-4.984-.144-1.94-.081-4.236.19-6.827.13-1.133 1.578-1.553 2.46-1.553.378 0 .624.081.775.255l.15.173-.017.271c-.842 6.682-.728 10.688.341 11.9a.924.924 0 0 0 .733.341c.822 0 2.371-2.896 3.025-8.13.092-1.387.22-2.688.341-3.452.127-1.096 1.557-1.512 2.428-1.512.407 0 .669.092.823.288l.15.192-.045.296c.005 0-.337 3.472-.797 6.654zm-6.982 16.051c-.983 2.645-.834 4.303-.369 4.973.122.175.241.243.311.25.563-.227 1.79-3.454 2.905-11.133a35.676 35.676 0 0 0-2.847 5.91zM32.43 16.066c.981-3.775.93-6.969.64-7.848-1.034 1.391-3.09 9.681-3.449 15.846 1.148-2.629 2.254-5.748 2.809-7.998zm8.938-1.018c1.052-4.048.977-7.435.656-8.299-1.088 1.359-3.303 10.256-3.662 16.826 1.226-2.789 2.415-6.13 3.006-8.527zm-31.23 2.625a25.24 25.24 0 0 0-1.078 4.794c-.579 4.72.249 8.865 2.215 11.088 1.081 1.222 2.454 1.841 4.082 1.842.092 0 .184-.002.277-.007 4.149-.203 5.55-4.45 6.016-6.964l.132-2.548c.078-2.123 1.386-2.288 1.785-2.288.317 0 1.22.134 1.22.727-.456 6.588-1.118 11.717-2.024 15.684 4.964.346 11.007 1.305 16.306 2.207 4.403.743 9.414 1.5 13.18 1.5 3.223 0 5.159-.546 5.755-1.622.12-.204.192-.358.244-.473.104-.223.261-.562.663-.562.246 0 .433.14.67.318.847.585 1.427 1.599 1.465 2.572.023.594-.137 1.457-1.029 2.181-.894.747-2.356 1.113-4.466 1.113-3.669 0-8.714-1.074-14.055-2.21-.981-.209-1.964-.419-2.939-.621-6.472-1.322-11.961-2.097-16.325-2.306-1.581 5.356-3.827 8.125-7.048 8.701a5.935 5.935 0 0 1-.968.079c-2.101 0-4.15-1.085-5.219-2.765-.862-1.355-.961-2.905-.28-4.364 1.183-2.629 4.498-3.856 10.428-3.856.348 0 .702.004 1.064.012.327-1.413.598-2.994.823-4.789-1.558 1.617-3.541 2.518-5.819 2.625l-.301.005c-2.537 0-4.752-.975-6.409-2.821-2.418-2.695-3.495-7.091-2.956-12.06.217-1.997.628-3.845 1.224-5.506-2.488-.591-4.532-1.867-5.665-3.548-1.004-1.49-1.313-3.247-.918-5.222C1.501 2.026 9.924-.012 12.844-.012c.518 0 .895.056 1.151.171.378.18 1.358.646 1.195 1.367-.093.413-.528.659-1.163.659-.312 0-.642-.061-.929-.17-.044-.017-.214-.07-.626-.07-2.142 0-8.658 1.602-9.576 6.507-.635 3.349 1.87 5.823 4.781 6.646 2.573-5.46 7.164-9.343 11.788-9.939 2.233-.3 4.05.295 4.95 1.635.716 1.068.787 2.507.195 3.949-1.536 3.771-7.849 6.778-14.472 6.93zm2.164 26.411c-.634 1.045-.719 2.144-.231 3.01.457.812 1.328 1.296 2.33 1.296a3.36 3.36 0 0 0 1.092-.189c1.72-.618 3.121-2.673 4.162-6.115-5.088.084-6.812 1.121-7.353 1.998zm8.855-35.955c-.331-.511-.997-.617-1.497-.617-.256 0-.537.027-.836.081-2.767.527-5.836 3.616-7.791 7.785 3.954-.313 8.695-2.295 10.004-5.039.4-.897.446-1.707.12-2.21z" class="qcls-1"/></symbol></svg>